# xmcd CD database file
# Copyright (C) 1993-1998 Ti Kan
# 
# Track frame offsets:
#     150
#     24594
#     48452
#     69512
#     91765
#     110545
#     131235
#     153685
#     177850
#     196127
# 
# Disc length: 2852 seconds
# 
# Revision: 1
# Processed by: cddbd v1.4b41PL1 Copyright (c) Steve Scherf et al.
# Submitted via: DiscPlay 4.0.4
# 
DISCID=850b220a
DTITLE=Onur Mete - Bitmesin
DYEAR=1900
DGENRE=
TTITLE0=Adaletsiz Yar
TTITLE1=Bitmesin
TTITLE2=Sakla Umutlar 
TTITLE3=Yar
TTITLE4=Senin   in
TTITLE5=ltifat Et
TTITLE6=Vazge mem Senden
TTITLE7=Bu Gece
TTITLE8=G nlerden Yaz
TTITLE9=Sen Vars n
EXTD=
EXTT0=
EXTT1=
EXTT2=
EXTT3=
EXTT4=
EXTT5=
EXTT6=
EXTT7=
EXTT8=
EXTT9=
PLAYORDER=
